:version 1.10
:name ASF
:units
  mass 1
  length 1
  angle deg
:documentation
  ASF file generated by Kaydara
:root
  axis xyz
  order  tx ty tz rx ry rz
  position 0 0 0
  orientation 0 0 0
:bonedata
  begin
    id 1
    name SpineDummy
    direction 0.999998 -0.00179978 1.38929e-006
    length 3.60008
    axis 0 0 0 xyz
  end
  begin
    id 2
    name Spine
    direction 0.964365 0.262802 0.0305839
    length 8.13928
    axis 1.33928 -1.75354 15.2838 xyz
    dof rx ry rz
  end
  begin
    id 3
    name Spine1
    direction 0.811168 0.572065 0.12144
    length 7.14954
    axis 2.2224 -6.9761 35.2157 xyz
    dof rx ry rz
  end
  begin
    id 4
    name Neck
    direction 0 0 0
    length 0
    axis 2.2224 -6.9761 35.2157 xyz
    dof rx ry rz
  end
  begin
    id 5
    name HeadDummy
    direction 0.810939 0.572387 0.121455
    length 3.55534
    axis 2.2224 -6.9761 35.2157 xyz
  end
  begin
    id 6
    name Head
    direction 0.998226 -0.000232542 0.0595419
    length 7.35666
    axis -3.03688 -3.41352 -0.0133467 xyz
    dof rx ry rz
  end
  begin
    id 7
    name R_ClavicleDummy
    direction 0.531669 -0.194489 -0.824319
    length 2.49392
    axis 2.2224 -6.9761 35.2157 xyz
  end
  begin
    id 8
    name R_Clavicle
    direction -0.155119 0.0480802 -0.986725
    length 4.485
    axis -54.2764 80.6538 162.779 xyz
    dof rx ry rz
  end
  begin
    id 9
    name R_UpperArm
    direction -0.955567 0.200068 -0.216484
    length 10.1122
    axis -72.9943 12.5026 168.175 xyz
    dof rx ry rz
  end
  begin
    id 10
    name R_Forearm
    direction -0.61433 0.385743 0.688332
    length 9.39148
    axis -117.015 -43.4982 147.875 xyz
    dof rx ry rz
  end
  begin
    id 11
    name R_Hand
    direction -0.699429 0.0170333 0.714499
    length 3.66324
    axis -45.0303 -36.7097 175.478 xyz
    dof rx ry rz
  end
  begin
    id 12
    name L_ClavicleDummy
    direction 0.40287 -0.36502 0.839319
    length 2.49392
    axis 2.2224 -6.9761 35.2157 xyz
  end
  begin
    id 13
    name L_Clavicle
    direction -0.231271 -0.0726419 0.970174
    length 4.485
    axis 18.4357 -75.9711 -162.563 xyz
    dof rx ry rz
  end
  begin
    id 14
    name L_UpperArm
    direction -0.917494 0.144359 0.370629
    length 10.1122
    axis 56.0417 -21.7544 171.058 xyz
    dof rx ry rz
  end
  begin
    id 15
    name L_Forearm
    direction -0.496786 0.615074 -0.612281
    length 9.39148
    axis 89.8094 37.7546 128.927 xyz
    dof rx ry rz
  end
  begin
    id 16
    name L_Hand
    direction -0.409932 0.64962 -0.640274
    length 3.66324
    axis -0.424369 32.133 128.52 xyz
    dof rx ry rz
  end
  begin
    id 17
    name L_ThighDummy
    direction -1.84081e-006 1.87549e-006 1
    length 3.13049
    axis 0 0 0 xyz
  end
  begin
    id 18
    name L_Thigh
    direction -0.947739 0.307978 0.083308
    length 17.9961
    axis 173.219 -4.77873 161.998 xyz
    dof rx ry rz
  end
  begin
    id 19
    name L_Calf
    direction -0.728814 -0.684427 0.0197583
    length 13.3367
    axis 167.331 -1.13214 -136.799 xyz
    dof rx ry rz
  end
  begin
    id 20
    name L_Foot
    direction -0.9028 0.418719 0.0981191
    length 5.8674
    axis 163.436 11.5135 -155.37 xyz
    dof rx ry rz
  end
  begin
    id 21
    name L_Toe0
    direction -0.35341 0.886259 0.299411
    length 4.75286
    axis 169.316 -17.4222 111.74 xyz
    dof rx ry rz
  end
  begin
    id 22
    name R_ThighDummy
    direction 9.32778e-007 -8.82053e-007 -1
    length 3.13049
    axis 0 0 0 xyz
  end
  begin
    id 23
    name R_Thigh
    direction -0.925064 0.37528 -0.0585023
    length 17.9961
    axis -178.698 3.35385 157.919 xyz
    dof rx ry rz
  end
  begin
    id 24
    name R_Calf
    direction -0.68969 -0.718776 -0.0876886
    length 13.3367
    axis -160.504 5.03065 -133.817 xyz
    dof rx ry rz
  end
  begin
    id 25
    name R_Foot
    direction -0.857405 0.418858 -0.299022
    length 5.8674
    axis -161.328 4.38911 -154.413 xyz
    dof rx ry rz
  end
  begin
    id 26
    name R_Toe0
    direction -0.100745 0.952789 -0.286433
    length 4.75286
    axis 171.683 16.6445 96.0359 xyz
    dof rx ry rz
  end
:hierarchy
  begin
    root SpineDummy L_ThighDummy R_ThighDummy
    SpineDummy Spine
    Spine Spine1
    Spine1 Neck
    Neck HeadDummy R_ClavicleDummy L_ClavicleDummy
    HeadDummy Head
    R_ClavicleDummy R_Clavicle
    R_Clavicle R_UpperArm
    R_UpperArm R_Forearm
    R_Forearm R_Hand
    L_ClavicleDummy L_Clavicle
    L_Clavicle L_UpperArm
    L_UpperArm L_Forearm
    L_Forearm L_Hand
    L_ThighDummy L_Thigh
    L_Thigh L_Calf
    L_Calf L_Foot
    L_Foot L_Toe0
    R_ThighDummy R_Thigh
    R_Thigh R_Calf
    R_Calf R_Foot
    R_Foot R_Toe0
  end

:SAMPLES-PER-SECOND 30
:FULLY-SPECIFIED
:DEGREES
72
root  8.80985 31.5971 -41.788 95.9334 -3.53349 97.493
Spine  -3.11943 -7.17184 -2.50274
Spine1  -2.78373 7.31387 -5.37368
Neck  3.97569e-016 0 -2.38542e-015
Head  27.9744 2.43056 -13.2522
R_Clavicle  0.487841 -12.1628 2.86126
R_UpperArm  20.4822 -8.90748 28.5021
R_Forearm  9.92584 -14.181 12.0915
R_Hand  -0.692008 5.40026 -15.6272
L_Clavicle  -0.449072 15.7785 1.91637
L_UpperArm  -17.7994 10.2115 13.8901
L_Forearm  -21.4422 14.124 16.8853
L_Hand  0.660085 7.95753 5.79309
L_Thigh  5.56027 -3.5344 -6.609
L_Calf  3.44016 -2.61643 19.7786
L_Foot  4.08078 4.39961 12.0485
L_Toe0  -0.180537 0.0730556 -1.51579
R_Thigh  7.56866 -13.2755 4.74105
R_Calf  8.63867 -0.277402 -0.885292
R_Foot  0.574779 -1.435 -8.13351
R_Toe0  16.0332 -3.52161 -7.07977
73
root  8.05201 33.0054 -41.9165 104.991 -5.75397 96.6012
Spine  -4.22676 -7.80305 -2.96297
Spine1  -4.02757 9.93258 -6.94277
Neck  3.97569e-016 0 -2.38542e-015
Head  25.1155 0.258185 -11.4405
R_Clavicle  0.466737 -14.8091 2.79813
R_UpperArm  19.8426 -10.045 34.7566
R_Forearm  12.6047 -19.5123 17.1488
R_Hand  -0.682913 3.76691 -14.6435
L_Clavicle  -0.458478 16.5079 1.86276
L_UpperArm  -24.9055 10.224 18.4491
L_Forearm  -23.2684 19.3387 23.9029
L_Hand  0.50485 7.17807 4.7306
L_Thigh  0.0938198 -2.23729 -3.28306
L_Calf  1.14654 -3.19068 24.1875
L_Foot  0.910689 7.82186 -3.59184
L_Toe0  -3.20071 0.371801 3.25979
R_Thigh  11.3731 -10.3397 2.79948
R_Calf  5.08662 2.19746 6.78924
R_Foot  1.23103 0.925776 -9.35378
R_Toe0  6.64078 -1.31346 -7.63083
74
root  7.46803 33.8611 -41.9799 113.236 -6.26458 95.9065
Spine  -4.91563 -6.43507 -3.25894
Spine1  -4.90573 10.102 -6.80697
Neck  3.97569e-016 0 -2.38542e-015
Head  23.1085 -1.53867 -9.90438
R_Clavicle  0.468483 -16.3937 3.00533
R_UpperArm  22.7346 -11.4285 40.4914
R_Forearm  12.0596 -22.7543 19.9824
R_Hand  -0.478162 3.81655 -12.4809
L_Clavicle  -0.447477 15.679 1.52262
L_UpperArm  -32.9585 8.86791 21.9278
L_Forearm  -23.67 22.2836 28.2397
L_Hand  0.42544 6.10481 4.35219
L_Thigh  -9.80467 -1.69624 -1.24674
L_Calf  -6.88021 -2.87909 21.4902
L_Foot  0.227595 12.5312 -9.35993
L_Toe0  -4.96484 0.370933 -3.65685
R_Thigh  12.8544 -7.18276 0.895827
R_Calf  -0.857797 3.95567 12.3474
R_Foot  2.23351 4.5343 -13.0812
R_Toe0  -3.4062 0.812218 -3.3683
75
root  6.96373 34.1718 -41.9247 121.302 -4.97292 95.3536
Spine  -5.54778 -5.08493 -3.10869
Spine1  -5.67219 11.3731 -5.52729
Neck  3.97569e-016 0 -2.38542e-015
Head  23.0879 -2.99595 -8.70147
R_Clavicle  0.503258 -16.1017 3.5854
R_UpperArm  29.9794 -12.4036 44.8823
R_Forearm  8.87171 -27.2781 21.6918
R_Hand  -0.31241 3.97645 -10.8696
L_Clavicle  -0.431598 14.5858 1.62047
L_UpperArm  -40.3674 6.49301 25.0426
L_Forearm  -24.2589 23.0851 29.4818
L_Hand  0.383295 5.7556 4.04836
L_Thigh  -12.3902 -1.67855 -0.956532
L_Calf  -12.294 -1.62674 11.751
L_Foot  0.927686 11.1117 -6.00572
L_Toe0  0.963372 0.00556241 -6.39469
R_Thigh  12.3431 -2.82185 -1.73112
R_Calf  -6.5757 5.22838 16.4799
R_Foot  2.81911 7.06991 -15.9809
R_Toe0  -12.3513 3.53574 -0.43715
76
root  6.4583 34.008 -41.7768 129.545 -3.18313 95.0032
Spine  -6.35791 -4.71062 -2.68433
Spine1  -6.50369 14.2571 -4.54934
Neck  3.97569e-016 0 -2.38542e-015
Head  23.6753 -4.06957 -7.47065
R_Clavicle  0.562427 -15.2805 4.33797
R_UpperArm  39.5513 -12.6109 49.4004
R_Forearm  6.19841 -32.931 23.7722
R_Hand  -0.245555 4.19522 -10.3763
L_Clavicle  -0.437889 14.1905 2.33953
L_UpperArm  -45.4393 2.67333 27.9696
L_Forearm  -25.5923 22.6715 28.8374
L_Hand  0.363177 6.20877 3.71437
L_Thigh  -9.61264 -2.22057 -1.56954
L_Calf  -8.11457 0.124662 -1.20219
L_Foot  0.821134 7.89958 -4.17749
L_Toe0  0.505156 0.034446 -6.1361
R_Thigh  10.7204 2.58518 -3.67999
R_Calf  -11.1155 6.0585 19.263
R_Foot  2.71846 6.85835 -14.7651
R_Toe0  -18.1106 4.05003 -4.11595
77
root  5.9886 33.4151 -41.6409 137.406 -2.05709 94.9934
Spine  -7.20493 -4.76259 -2.68961
Spine1  -7.2601 16.6796 -4.14284
Neck  3.97569e-016 0 -2.38542e-015
Head  23.1506 -4.54328 -5.77132
R_Clavicle  0.584754 -15.4538 4.75386
R_UpperArm  45.2062 -12.5435 55.5508
R_Forearm  8.97368 -36.4023 27.0785
R_Hand  -0.199122 5.20489 -10.8327
L_Clavicle  -0.450237 13.9626 3.12355
L_UpperArm  -48.4565 -2.32354 30.7284
L_Forearm  -26.9288 21.4995 27.0517
L_Hand  0.332522 6.39943 3.37012
L_Thigh  -7.19705 -3.26663 -2.491
L_Calf  -2.59913 1.83556 -13.8341
L_Foot  0.676274 8.19033 -4.91068
L_Toe0  0.505156 0.034446 -6.1361
R_Thigh  10.8931 7.11006 -3.82351
R_Calf  -14.2134 6.3438 20.2634
R_Foot  1.08551 -1.20751 -11.8208
R_Toe0  -13.2786 2.18676 -6.83232
78
root  5.5993 32.46 -41.5308 144.513 -1.59172 95.6704
Spine  -7.99412 -5.24983 -3.16425
Spine1  -7.79421 18.1571 -3.65793
Neck  3.97569e-016 0 -2.38542e-015
Head  21.7847 -4.58419 -3.85421
R_Clavicle  0.572535 -15.8538 4.70468
R_UpperArm  46.5133 -13.0683 62.8756
R_Forearm  15.0564 -37.6731 29.9142
R_Hand  -0.206153 6.70522 -12.0018
L_Clavicle  -0.458335 13.0741 3.44697
L_UpperArm  -50.8268 -7.4959 33.4049
L_Forearm  -27.2047 19.6339 24.3228
L_Hand  0.255567 5.84059 2.74965
L_Thigh  -7.24815 -3.95271 -4.64841
L_Calf  -4.45395 3.22077 -24.5717
L_Foot  0.29872 7.85033 -6.09142
L_Toe0  0.505156 0.034446 -6.1361
R_Thigh  14.7193 9.29406 -3.61843
R_Calf  -13.2791 6.21763 19.862
R_Foot  -2.73838 -15.5097 -6.84744
R_Toe0  -7.44263 1.01224 -7.34242
79
root  5.28108 31.2083 -41.3855 150.909 -1.07011 96.9402
Spine  -8.61071 -6.13555 -3.56092
Spine1  -8.01678 19.64 -2.85418
Neck  3.97569e-016 0 -2.38542e-015
Head  20.7364 -4.68801 -2.5727
R_Clavicle  0.590195 -14.9991 4.6769
R_UpperArm  45.9701 -14.4101 69.9532
R_Forearm  18.6489 -38.3035 31.5566
R_Hand  -0.24984 7.81466 -13.0086
L_Clavicle  -0.466929 11.556 3.59161
L_UpperArm  -52.9664 -12.4493 35.8329
L_Forearm  -25.7983 17.325 21.1055
L_Hand  0.128208 4.99992 1.56165
L_Thigh  -8.13854 -2.86801 -8.71168
L_Calf  -9.61988 4.26666 -33.2991
L_Foot  -0.472319 5.44081 -7.36206
L_Toe0  0.505156 0.034446 -6.1361
R_Thigh  19.2491 9.91447 -3.3178
R_Calf  -5.89635 5.21578 16.6509
R_Foot  -7.29145 -21.0215 4.24583
R_Toe0  0.025061 -0.166135 -8.3506
80
root  4.93537 29.8773 -41.2057 156.579 0.0521819 98.0071
Spine  -8.9471 -6.33074 -3.88163
Spine1  -7.989 21.0902 -1.9139
Neck  3.97569e-016 0 -2.38542e-015
Head  20.1766 -4.99336 -2.4583
R_Clavicle  0.656892 -13.2206 4.99945
R_UpperArm  44.4867 -15.8536 75.8306
R_Forearm  18.7238 -38.4069 32.0115
R_Hand  -0.239022 8.26295 -13.1674
L_Clavicle  -0.512701 9.93447 4.34856
L_UpperArm  -54.0192 -17.2578 37.4515
L_Forearm  -23.3388 14.7683 17.7116
L_Hand  -0.00998263 4.37277 0.0414957
L_Thigh  -8.01345 0.361595 -13.6931
L_Calf  -10.9358 4.93506 -39.3491
L_Foot  -0.91677 4.96398 -8.84819
L_Toe0  0.505156 0.034446 -6.1361
R_Thigh  20.6456 11.6668 -2.30006
R_Calf  4.045 3.69464 11.8938
R_Foot  -9.99717 -17.6692 17.0142
R_Toe0  -0.283201 -0.292482 -17.1908
81
root  4.45735 28.9073 -41.0631 161.389 1.26771 98.424
Spine  -9.15257 -5.76019 -4.34312
Spine1  -7.95355 22.0844 -1.08175
Neck  3.97569e-016 0 -2.38542e-015
Head  19.6492 -5.23133 -3.15425
R_Clavicle  0.73073 -11.9097 5.42953
R_UpperArm  43.575 -16.505 79.5124
R_Forearm  17.3398 -37.816 31.5312
R_Hand  -0.234365 8.40633 -13.208
L_Clavicle  -0.625322 8.51342 5.81952
L_UpperArm  -53.6169 -20.7573 38.1925
L_Forearm  -20.7295 11.5029 13.5763
L_Hand  -0.0900733 4.20837 -0.899251
L_Thigh  -7.10888 4.10128 -17.989
L_Calf  -9.04418 5.12625 -41.1912
L_Foot  -0.805363 6.48303 -9.44122
L_Toe0  0.505156 0.034446 -6.1361
R_Thigh  19.6057 13.7756 0.462946
R_Calf  8.20983 2.29514 7.58956
R_Foot  -7.39135 -11.3477 17.7636
R_Toe0  -1.90253 -0.272392 -17.3885
82
root  3.80519 28.626 -41.051 165.123 1.17607 98.4383
Spine  -9.34191 -6.31076 -4.5
Spine1  -8.10593 23.1383 -0.900903
Neck  3.97569e-016 0 -2.38542e-015
Head  19.0534 -5.37418 -3.78004
R_Clavicle  0.760071 -11.5295 5.61866
R_UpperArm  43.8461 -16.0041 79.5452
R_Forearm  16.7183 -37.19 30.8176
R_Hand  -0.355674 8.58625 -14.1981
L_Clavicle  -0.735331 7.3799 6.90665
L_UpperArm  -52.2665 -20.7517 38.959
L_Forearm  -17.9658 7.03432 8.17186
L_Hand  -0.077199 4.62324 -0.694188
L_Thigh  -6.0969 5.83719 -20.9753
L_Calf  -6.77821 4.73619 -37.512
L_Foot  -0.652753 6.5437 -8.86039
L_Toe0  0.505156 0.034446 -6.1361
R_Thigh  19.556 14.1764 2.95456
R_Calf  10.2497 2.03302 6.75844
R_Foot  -5.914 -9.2057 15.6092
R_Toe0  -1.78872 -0.272855 -17.3236
83
root  2.82543 29.1119 -41.1912 167.821 -0.435045 97.7886
Spine  -9.516 -8.27239 -4.08898
Spine1  -8.3564 24.3937 -1.5864
Neck  3.97569e-016 0 -2.38542e-015
Head  18.4515 -5.73682 -3.72182
R_Clavicle  0.748356 -11.8229 5.59045
R_UpperArm  44.5167 -14.2626 75.1946
R_Forearm  16.7037 -37.3587 30.2253
R_Hand  -0.582035 8.53245 -15.8543
L_Clavicle  -0.729057 6.82986 6.61443
L_UpperArm  -49.7159 -16.805 40.1415
L_Forearm  -14.9842 2.15143 2.46202
L_Hand  -0.0121502 5.10713 0.0405603
L_Thigh  -4.16053 4.84832 -22.3232
L_Calf  -3.26004 3.68582 -28.371
L_Foot  -0.846656 4.4509 -8.19351
L_Toe0  0.473666 0.0361994 -6.18872
R_Thigh  21.0583 12.3686 4.34914
R_Calf  12.6377 3.31082 10.7351
R_Foot  -6.27868 -11.7542 12.6104
R_Toe0  -1.80066 -0.273656 -17.3304
84
root  1.4293 30.2063 -41.4434 169.404 -2.57287 95.8218
Spine  -9.43666 -9.53021 -4.01526
Spine1  -8.46072 24.3612 -2.6445
Neck  3.97569e-016 0 -2.38542e-015
Head  17.6526 -6.55251 -2.9892
R_Clavicle  0.71259 -12.5905 5.45083
R_UpperArm  44.5305 -11.5371 67.4334
R_Forearm  15.8751 -38.0087 29.201
R_Hand  -0.71155 8.06786 -16.6978
L_Clavicle  -0.605855 7.22135 5.19964
L_UpperArm  -44.94 -10.9832 40.806
L_Forearm  -12.4139 -1.24339 -1.46279
L_Hand  0.0187349 4.93276 0.375337
L_Thigh  -0.682746 1.97125 -21.9997
L_Calf  1.2397 2.01243 -15.2209
L_Foot  -0.974082 2.49541 -7.20828
L_Toe0  0.625069 0.0604738 -5.9067
R_Thigh  21.3402 10.503 5.15511
R_Calf  11.5919 6.15082 19.9714
R_Foot  -6.74701 -18.0361 5.73529
R_Toe0  -1.58463 -0.271405 -17.2354
85
root  -0.208981 31.4461 -41.7968 169.441 -4.66378 92.7779
Spine  -8.63221 -8.7018 -4.85345
Spine1  -8.09301 21.6303 -3.6936
Neck  3.97569e-016 0 -2.38542e-015
Head  16.4843 -7.63936 -2.13431
R_Clavicle  0.66031 -13.1351 5.01251
R_UpperArm  43.411 -8.72928 57.9614
R_Forearm  14.5062 -37.9177 27.0599
R_Hand  -0.653739 7.56583 -16.0879
L_Clavicle  -0.47869 8.40199 3.61226
L_UpperArm  -38.2066 -5.19108 40.1592
L_Forearm  -10.4418 -1.81239 -2.1205
L_Hand  0.0234115 4.42942 0.426554
L_Thigh  3.85065 -1.85458 -20.8551
L_Calf  4.42273 0.026846 -0.567042
L_Foot  -0.447995 1.82763 -4.17332
L_Toe0  3.14562 -0.382124 -1.75663
R_Thigh  15.7278 9.8097 5.19952
R_Calf  4.83099 10.1567 32.843
R_Foot  -3.95381 -22.5724 -8.11344
R_Toe0  -1.01192 -0.252546 -16.6226
86
root  -1.87727 32.2756 -42.2224 167.822 -6.68134 90.2123
Spine  -7.05693 -6.48052 -5.02902
Spine1  -6.95929 16.6093 -4.90007
Neck  3.97569e-016 0 -2.38542e-015
Head  14.921 -8.40163 -2.00149
R_Clavicle  0.600425 -12.4505 4.13905
R_UpperArm  40.1241 -6.39826 47.8546
R_Forearm  15.9218 -35.6915 24.1396
R_Hand  -0.553956 7.12672 -15.1128
L_Clavicle  -0.403545 9.76005 2.34573
L_UpperArm  -31.7008 0.244572 38.4652
L_Forearm  -7.76924 0.147855 0.146425
L_Hand  0.0801645 4.28156 1.08884
L_Thigh  9.48282 -5.87669 -19.774
L_Calf  6.62248 -1.71265 12.2669
L_Foot  0.442173 1.36683 0.529732
L_Toe0  9.96242 -2.13241 6.42568
R_Thigh  5.32743 9.20331 4.59678
R_Calf  -0.385532 13.3061 42.1459
R_Foot  -0.102497 -19.2512 -19.0356
R_Toe0  -1.74009 -0.244612 -16.2897
